<svg width="1728" height="99" viewBox="0 0 1728 99" fill="none" xmlns="http://www.w3.org/2000/svg">
<path d="M-1.66465e-05 39.7256C34.1575 72.3516 70.7397 76.8526 109.789 52.9178C110.39 52.5572 111.022 52.2961 111.592 52.0101C147.404 107.104 213.685 110.2 253.577 64.7919C291.256 91.3254 328.281 90.1691 365.053 60.5521C383.028 83.8901 405.536 96.1 432.619 93.9862C459.513 91.8849 480.471 76.7034 495.758 50.6921C532.994 74.5773 567.278 70.2006 599.38 36.8037C600.392 38.1093 601.53 39.5391 602.637 41.0063C626.21 71.991 663.573 81.6769 695.959 65.0779C698.7 63.6729 700.513 62.7528 703.138 66.1099C737.401 109.876 792.095 109.329 825.81 65.0904C826.39 64.3319 826.97 63.561 827.76 62.529C828.836 63.3123 829.901 63.9216 830.807 64.7795C868.517 100.489 917.919 99.5192 954.238 62.2306C956.452 59.9677 957.96 59.0351 960.964 61.0867C996.84 85.6557 1032.02 83.9025 1066.37 56.6354C1067.08 56.0635 1067.83 55.5537 1068.84 54.8077C1086.93 78.1955 1109.15 90.2313 1136.17 88.304C1163.24 86.3768 1184.02 71.1704 1199.63 45.1716C1236.79 68.9075 1271.24 64.7049 1303.07 31.3826C1331.29 68.0123 1365 76.5169 1404.56 57.6426C1421.09 80.3714 1442.46 93.1283 1468.58 92.8423C1494.72 92.5564 1515.92 79.4388 1532.27 56.0013C1571.17 76.691 1605.23 69.4297 1633.86 34.6776C1645.04 38.7061 1655.48 43.9034 1666.35 46.0792C1687.46 50.3067 1707.15 44.4629 1724.7 29.8036C1726.33 28.4358 1727.63 25.2777 1727.76 22.8531C1728.16 15.654 1727.91 8.39275 1727.91 0.13678C1725.19 0.13678 1722.63 0.13678 1720.09 0.13678C1149.36 0.13678 578.622 0.13678 7.88573 0.13678C5.25012 0.13678 2.62505 0.0497437 -0.0105591 1.52588e-05C-0.0105591 13.2419 -0.0105591 26.4838 -0.0105591 39.7256H-1.66465e-05Z" fill="white"/>
</svg>
