<svg width="1728" height="97" viewBox="0 0 1728 97" fill="none" xmlns="http://www.w3.org/2000/svg">
<path d="M0.0105424 57.5632C34.168 25.9767 70.7503 21.6191 109.799 44.7914C110.4 45.1405 111.033 45.3933 111.602 45.6702C147.415 -7.6682 213.695 -10.6655 253.588 33.2956C291.266 7.60744 328.291 8.72693 365.063 37.4004C383.038 14.8059 405.546 2.98502 432.63 5.03141C459.524 7.06575 480.482 21.7636 495.769 46.9461C533.004 23.822 567.288 28.0592 599.39 60.3921C600.402 59.1281 601.541 57.7438 602.648 56.3234C626.221 26.3258 663.583 16.9486 695.969 33.0187C698.711 34.3789 700.524 35.2697 703.149 32.0196C737.412 -10.3526 792.106 -9.82292 825.821 33.0067C826.4 33.741 826.98 34.4873 827.771 35.4864C828.846 34.728 829.911 34.1382 830.818 33.3076C868.528 -1.26423 917.93 -0.325299 954.249 35.7753C956.463 37.9661 957.97 38.8689 960.975 36.8828C996.851 13.0966 1032.03 14.7939 1066.38 41.1922C1067.09 41.7459 1067.84 42.2395 1068.86 42.9617C1086.94 20.3191 1109.16 8.66675 1136.18 10.5326C1163.25 12.3984 1184.03 27.1203 1199.64 52.2908C1236.8 29.3111 1271.25 33.3798 1303.08 65.6404C1331.3 30.1778 1365.01 21.9442 1404.57 40.2171C1421.1 18.2125 1442.47 5.862 1468.59 6.13886C1494.73 6.41573 1515.93 19.1153 1532.28 41.8061C1571.18 21.7756 1605.24 28.8056 1633.87 62.4505C1645.05 58.5503 1655.49 53.5186 1666.36 51.4121C1687.47 47.3193 1707.16 52.9769 1724.71 67.1692C1726.34 68.4933 1727.64 71.5509 1727.77 73.8982C1728.17 80.8679 1727.92 87.8979 1727.92 95.8908C1725.2 95.8908 1722.64 95.8908 1720.1 95.8908C1149.37 95.8908 578.632 95.8908 7.89628 95.8908C5.26068 95.8908 2.63561 95.9751 0 96.0232C0 83.2032 0 70.3832 0 57.5632H0.0105424Z" fill="white"/>
</svg>
